<svg width="74" height="49" viewBox="0 0 74 49" fill="none" xmlns="http://www.w3.org/2000/svg">
<path fill-rule="evenodd" clip-rule="evenodd" d="M6 2H44.5619C46.32 2 47.8721 3.14801 48.3867 4.82914L51.1941 14H53.2857L50.2991 4.24371C49.5271 1.72201 47.1991 0 44.5619 0H6C2.68629 0 0 2.68629 0 6V43C0 46.3137 2.68629 49 6 49H55.8884C59.9217 49 62.8062 45.1003 61.6256 41.2437L59.102 33H57.0104L59.7132 41.8291C60.5003 44.4002 58.5772 47 55.8884 47H6C3.79086 47 2 45.2091 2 43V6C2 3.79086 3.79086 2 6 2Z" fill="#FF6A28"/>
<path d="M11.5852 31V17.9091H13.1705V23.7386H20.1506V17.9091H21.7358V31H20.1506V25.1449H13.1705V31H11.5852ZM28.6935 31.2045C27.8072 31.2045 27.0295 30.9936 26.3604 30.5717C25.6957 30.1499 25.1758 29.5597 24.8008 28.8011C24.43 28.0426 24.2447 27.1562 24.2447 26.142C24.2447 25.1193 24.43 24.2266 24.8008 23.4638C25.1758 22.701 25.6957 22.1087 26.3604 21.6868C27.0295 21.2649 27.8072 21.054 28.6935 21.054C29.5799 21.054 30.3555 21.2649 31.0202 21.6868C31.6893 22.1087 32.2092 22.701 32.5799 23.4638C32.9549 24.2266 33.1424 25.1193 33.1424 26.142C33.1424 27.1562 32.9549 28.0426 32.5799 28.8011C32.2092 29.5597 31.6893 30.1499 31.0202 30.5717C30.3555 30.9936 29.5799 31.2045 28.6935 31.2045ZM28.6935 29.8494C29.3668 29.8494 29.9208 29.6768 30.3555 29.3317C30.7901 28.9865 31.1119 28.5327 31.3207 27.9702C31.5295 27.4077 31.6339 26.7983 31.6339 26.142C31.6339 25.4858 31.5295 24.8743 31.3207 24.3075C31.1119 23.7408 30.7901 23.2827 30.3555 22.9332C29.9208 22.5838 29.3668 22.4091 28.6935 22.4091C28.0202 22.4091 27.4663 22.5838 27.0316 22.9332C26.5969 23.2827 26.2752 23.7408 26.0664 24.3075C25.8576 24.8743 25.7532 25.4858 25.7532 26.142C25.7532 26.7983 25.8576 27.4077 26.0664 27.9702C26.2752 28.5327 26.5969 28.9865 27.0316 29.3317C27.4663 29.6768 28.0202 29.8494 28.6935 29.8494ZM39.715 21.1818V22.4602H34.627V21.1818H39.715ZM36.1099 18.8295H37.6184V28.1875C37.6184 28.6136 37.6802 28.9332 37.8038 29.1463C37.9316 29.3551 38.0936 29.4957 38.2896 29.5682C38.4899 29.6364 38.7008 29.6705 38.9224 29.6705C39.0886 29.6705 39.225 29.6619 39.3315 29.6449C39.438 29.6236 39.5233 29.6065 39.5872 29.5938L39.894 30.9489C39.7917 30.9872 39.649 31.0256 39.4657 31.0639C39.2825 31.1065 39.0502 31.1278 38.769 31.1278C38.3429 31.1278 37.9252 31.0362 37.5162 30.853C37.1113 30.6697 36.7747 30.3906 36.5062 30.0156C36.242 29.6406 36.1099 29.1676 36.1099 28.5966V18.8295ZM45.9952 31.2045C45.0492 31.2045 44.2331 30.9957 43.5471 30.5781C42.8652 30.1562 42.339 29.5682 41.9682 28.8139C41.6017 28.0554 41.4185 27.1733 41.4185 26.1676C41.4185 25.1619 41.6017 24.2756 41.9682 23.5085C42.339 22.7372 42.8546 22.1364 43.5151 21.706C44.1799 21.2713 44.9554 21.054 45.8418 21.054C46.3532 21.054 46.8581 21.1392 47.3567 21.3097C47.8553 21.4801 48.3091 21.7571 48.7182 22.1406C49.1273 22.5199 49.4533 23.0227 49.6962 23.6491C49.9391 24.2756 50.0605 25.0469 50.0605 25.9631V26.6023H42.4924V25.2983H48.5265C48.5265 24.7443 48.4157 24.25 48.1941 23.8153C47.9767 23.3807 47.6657 23.0376 47.2608 22.7862C46.8603 22.5348 46.3873 22.4091 45.8418 22.4091C45.2409 22.4091 44.7211 22.5582 44.2821 22.8565C43.8475 23.1506 43.513 23.5341 43.2786 24.0071C43.0442 24.4801 42.927 24.9872 42.927 25.5284V26.3977C42.927 27.1392 43.0549 27.7678 43.3105 28.2834C43.5705 28.7947 43.9306 29.1847 44.3908 29.4531C44.851 29.7173 45.3858 29.8494 45.9952 29.8494C46.3915 29.8494 46.7495 29.794 47.0691 29.6832C47.3929 29.5682 47.6721 29.3977 47.9064 29.1719C48.1408 28.9418 48.3219 28.6562 48.4498 28.3153L49.9071 28.7244C49.7537 29.2188 49.4959 29.6534 49.1337 30.0284C48.7715 30.3991 48.324 30.6889 47.7914 30.8977C47.2587 31.1023 46.66 31.2045 45.9952 31.2045ZM53.8638 17.9091V31H52.3553V17.9091H53.8638ZM57.7262 31.1023C57.4109 31.1023 57.1403 30.9893 56.9144 30.7635C56.6886 30.5376 56.5756 30.267 56.5756 29.9517C56.5756 29.6364 56.6886 29.3658 56.9144 29.1399C57.1403 28.9141 57.4109 28.8011 57.7262 28.8011C58.0415 28.8011 58.3121 28.9141 58.538 29.1399C58.7638 29.3658 58.8768 29.6364 58.8768 29.9517C58.8768 30.1605 58.8235 30.3523 58.717 30.527C58.6147 30.7017 58.4762 30.8423 58.3015 30.9489C58.131 31.0511 57.9393 31.1023 57.7262 31.1023ZM64.473 31.2301C63.8509 31.2301 63.2862 31.1129 62.7791 30.8786C62.272 30.6399 61.8693 30.2969 61.571 29.8494C61.2727 29.3977 61.1236 28.8523 61.1236 28.2131C61.1236 27.6506 61.2344 27.1946 61.456 26.8452C61.6776 26.4915 61.9737 26.2145 62.3445 26.0142C62.7152 25.8139 63.1243 25.6648 63.5717 25.5668C64.0234 25.4645 64.4773 25.3835 64.9332 25.3239C65.5298 25.2472 66.0135 25.1896 66.3842 25.1513C66.7592 25.1087 67.032 25.0384 67.2024 24.9403C67.3771 24.8423 67.4645 24.6719 67.4645 24.429V24.3778C67.4645 23.7472 67.2919 23.2571 66.9467 22.9077C66.6058 22.5582 66.0881 22.3835 65.3935 22.3835C64.6733 22.3835 64.1087 22.5412 63.6996 22.8565C63.2905 23.1719 63.0028 23.5085 62.8366 23.8665L61.4048 23.3551C61.6605 22.7585 62.0014 22.294 62.4276 21.9616C62.858 21.625 63.3267 21.3906 63.8338 21.2585C64.3452 21.1222 64.848 21.054 65.3423 21.054C65.6577 21.054 66.0199 21.0923 66.429 21.169C66.8423 21.2415 67.2408 21.3928 67.6243 21.6229C68.0121 21.853 68.3338 22.2003 68.5895 22.6648C68.8452 23.1293 68.973 23.7514 68.973 24.5312V31H67.4645V29.6705H67.3878C67.2855 29.8835 67.1151 30.1115 66.8764 30.3544C66.6378 30.5973 66.3203 30.804 65.924 30.9744C65.5277 31.1449 65.044 31.2301 64.473 31.2301ZM64.7031 29.875C65.2997 29.875 65.8026 29.7578 66.2116 29.5234C66.625 29.2891 66.9361 28.9865 67.1449 28.6158C67.358 28.245 67.4645 27.8551 67.4645 27.446V26.0653C67.4006 26.142 67.2599 26.2124 67.0426 26.2763C66.8295 26.3359 66.5824 26.3892 66.3011 26.4361C66.0241 26.4787 65.7536 26.517 65.4893 26.5511C65.2294 26.581 65.0185 26.6065 64.8565 26.6278C64.4645 26.679 64.098 26.7621 63.7571 26.8771C63.4205 26.9879 63.1477 27.1562 62.9389 27.3821C62.7344 27.6037 62.6321 27.9062 62.6321 28.2898C62.6321 28.8139 62.826 29.2102 63.2138 29.4787C63.6058 29.7429 64.1023 29.875 64.7031 29.875ZM71.7264 31V21.1818H73.2349V31H71.7264ZM72.4934 19.5455C72.1994 19.5455 71.9458 19.4453 71.7328 19.245C71.524 19.0447 71.4196 18.804 71.4196 18.5227C71.4196 18.2415 71.524 18.0007 71.7328 17.8004C71.9458 17.6001 72.1994 17.5 72.4934 17.5C72.7875 17.5 73.0389 17.6001 73.2477 17.8004C73.4608 18.0007 73.5673 18.2415 73.5673 18.5227C73.5673 18.804 73.4608 19.0447 73.2477 19.245C73.0389 19.4453 72.7875 19.5455 72.4934 19.5455Z" fill="black"/>
</svg>
